<svg width="44" height="44" viewBox="0 0 44 44" fill="none" xmlns="http://www.w3.org/2000/svg">
<path d="M22 16.5917C22.2444 16.5917 22.4736 16.6296 22.6875 16.7053C22.9014 16.7811 23.1 16.9113 23.2833 17.0958L31.7625 25.575C32.0986 25.9111 32.2587 26.3316 32.2428 26.8363C32.2269 27.3411 32.0515 27.7609 31.7167 28.0958C31.3805 28.4319 30.9528 28.6 30.4333 28.6C29.9139 28.6 29.4861 28.4319 29.15 28.0958L22 20.9458L14.8042 28.1417C14.468 28.4778 14.0476 28.6385 13.5428 28.6238C13.038 28.6092 12.6182 28.4332 12.2833 28.0958C11.9472 27.7597 11.7792 27.3319 11.7792 26.8125C11.7792 26.2931 11.9472 25.8653 12.2833 25.5292L20.7167 17.0958C20.9 16.9125 21.0986 16.7823 21.3125 16.7053C21.5264 16.6283 21.7555 16.5904 22 16.5917Z" fill="#04111F"/>
</svg>
