<svg width="85" height="84" viewBox="0 0 85 84" fill="none" xmlns="http://www.w3.org/2000/svg">
<path d="M82.5781 80.5938H78.125V28.6406C78.125 28.2469 77.9686 27.8694 77.6902 27.591C77.4119 27.3126 77.0343 27.1562 76.6406 27.1562H72.1875V22.7031C72.1875 22.3094 72.0311 21.9319 71.7527 21.6535C71.4744 21.3751 71.0968 21.2188 70.7031 21.2188H66.25V16.7656C66.25 16.3719 66.0936 15.9944 65.8152 15.716C65.5369 15.4376 65.1593 15.2812 64.7656 15.2812H61.7969V10.8281C61.7969 10.4344 61.6405 10.0569 61.3621 9.77851C61.0837 9.50014 60.7062 9.34375 60.3125 9.34375C59.9188 9.34375 59.5413 9.50014 59.2629 9.77851C58.9845 10.0569 58.8281 10.4344 58.8281 10.8281V15.2812H55.8594C55.4657 15.2812 55.0881 15.4376 54.8098 15.716C54.5314 15.9944 54.375 16.3719 54.375 16.7656V21.2188H51.4062V1.92188C51.4062 1.52819 51.2499 1.15064 50.9715 0.872264C50.6931 0.593889 50.3156 0.4375 49.9219 0.4375H8.35938C7.96569 0.4375 7.58814 0.593889 7.30976 0.872264C7.03139 1.15064 6.875 1.52819 6.875 1.92188V80.5938H2.42188C2.02819 80.5938 1.65064 80.7501 1.37226 81.0285C1.09389 81.3069 0.9375 81.6844 0.9375 82.0781C0.9375 82.4718 1.09389 82.8494 1.37226 83.1277C1.65064 83.4061 2.02819 83.5625 2.42188 83.5625H82.5781C82.9718 83.5625 83.3494 83.4061 83.6277 83.1277C83.9061 82.8494 84.0625 82.4718 84.0625 82.0781C84.0625 81.6844 83.9061 81.3069 83.6277 81.0285C83.3494 80.7501 82.9718 80.5938 82.5781 80.5938ZM57.3438 18.25H63.2812V21.2188H57.3438V18.25ZM69.2188 24.1875V27.1562H51.4062V24.1875H69.2188ZM9.84375 3.40625H48.4375V27.1562H17.2656C16.8719 27.1562 16.4944 27.3126 16.216 27.591C15.9376 27.8694 15.7812 28.2469 15.7812 28.6406C15.7812 29.0343 15.9376 29.4119 16.216 29.6902C16.4944 29.9686 16.8719 30.125 17.2656 30.125H42.5V36.0625H17.2656C16.8719 36.0625 16.4944 36.2189 16.216 36.4973C15.9376 36.7756 15.7812 37.1532 15.7812 37.5469C15.7812 37.9406 15.9376 38.3181 16.216 38.5965C16.4944 38.8749 16.8719 39.0312 17.2656 39.0312H42.5V44.9688H17.2656C16.8719 44.9688 16.4944 45.1251 16.216 45.4035C15.9376 45.6819 15.7812 46.0594 15.7812 46.4531C15.7812 46.8468 15.9376 47.2244 16.216 47.5027C16.4944 47.7811 16.8719 47.9375 17.2656 47.9375H42.5V53.875H17.2656C16.8719 53.875 16.4944 54.0314 16.216 54.3098C15.9376 54.5881 15.7812 54.9657 15.7812 55.3594C15.7812 55.7531 15.9376 56.1306 16.216 56.409C16.4944 56.6874 16.8719 56.8438 17.2656 56.8438H42.5V62.7812H17.2656C16.8719 62.7812 16.4944 62.9376 16.216 63.216C15.9376 63.4944 15.7812 63.8719 15.7812 64.2656C15.7812 64.6593 15.9376 65.0369 16.216 65.3152C16.4944 65.5936 16.8719 65.75 17.2656 65.75H42.5V71.6875H17.2656C16.8719 71.6875 16.4944 71.8439 16.216 72.1223C15.9376 72.4006 15.7812 72.7782 15.7812 73.1719C15.7812 73.5656 15.9376 73.9431 16.216 74.2215C16.4944 74.4999 16.8719 74.6562 17.2656 74.6562H42.5V80.5938H9.84375V3.40625ZM49.9219 80.5938H45.4688V30.125H75.1562V80.5938H49.9219Z" fill="#0A5BBA" opacity="0.2"/>
</svg>
