<svg width="65" height="65" viewBox="0 0 65 65" fill="none" xmlns="http://www.w3.org/2000/svg">
<path d="M6.54655 32.4954C3.81864 32.4954 1.60767 34.7928 1.60767 37.6269V51.3111C1.60767 54.1455 3.81864 56.4427 6.54655 56.4427H32.8872C35.6152 56.4427 37.8261 54.1455 37.8261 51.3111V37.6269C37.8261 34.7928 35.6152 32.4954 32.8872 32.4954H6.54655ZM6.54655 35.9164H32.8872C33.796 35.9164 34.5335 36.6822 34.5335 37.6269V51.3111C34.5335 52.2554 33.796 53.0217 32.8872 53.0217H6.54655C5.63779 53.0217 4.90025 52.2554 4.90025 51.3111V37.6269C4.90025 36.6822 5.63779 35.9164 6.54655 35.9164ZM8.19284 37.6269C7.28409 37.6269 6.54655 38.3927 6.54655 39.3375V41.048C6.54655 41.9922 7.28409 42.7585 8.19284 42.7585C9.10159 42.7585 9.83913 41.9922 9.83913 41.048H11.4854C12.3942 41.048 13.1317 40.2822 13.1317 39.3375C13.1317 38.3927 12.3942 37.6269 11.4854 37.6269H8.19284ZM27.9484 37.6269C27.0396 37.6269 26.3021 38.3927 26.3021 39.3375C26.3021 40.2822 27.0396 41.048 27.9484 41.048H29.5947C29.5947 41.9922 30.3322 42.7585 31.2409 42.7585C32.1497 42.7585 32.8872 41.9922 32.8872 41.048V39.3375C32.8872 38.3927 32.1497 37.6269 31.2409 37.6269H27.9484ZM19.7169 39.3375C16.989 39.3375 14.778 41.6347 14.778 44.469C14.778 47.3034 16.989 49.6006 19.7169 49.6006C22.4448 49.6006 24.6558 47.3034 24.6558 44.469C24.6558 41.6347 22.4448 39.3375 19.7169 39.3375ZM19.7169 42.7585C20.6256 42.7585 21.3632 43.5248 21.3632 44.469C21.3632 45.4133 20.6256 46.1796 19.7169 46.1796C18.8081 46.1796 18.0706 45.4133 18.0706 44.469C18.0706 43.5248 18.8081 42.7585 19.7169 42.7585ZM8.19284 46.1796C7.28409 46.1796 6.54655 46.9459 6.54655 47.8901V49.6006C6.54655 50.5448 7.28409 51.3111 8.19284 51.3111H11.4854C12.3942 51.3111 13.1317 50.5448 13.1317 49.6006C13.1317 48.6564 12.3942 47.8901 11.4854 47.8901H9.83913C9.83913 46.9459 9.10159 46.1796 8.19284 46.1796ZM31.2409 46.1796C30.3322 46.1796 29.5947 46.9459 29.5947 47.8901H27.9484C27.0396 47.8901 26.3021 48.6564 26.3021 49.6006C26.3021 50.5448 27.0396 51.3111 27.9484 51.3111H31.2409C32.1497 51.3111 32.8872 50.5448 32.8872 49.6006V47.8901C32.8872 46.9459 32.1497 46.1796 31.2409 46.1796Z" fill="#0A5BBA"/>
<path d="M22.8883 22.6895C20.6608 23.9886 19.9294 26.9206 21.2544 29.2387L27.6514 40.4312C28.9764 42.7494 31.8556 43.5755 34.083 42.2764L55.5912 29.7325C57.8187 28.4335 58.5501 25.5016 57.2251 23.1834L50.8281 11.9909C49.5032 9.67278 46.6239 8.8466 44.3964 10.1457L22.8883 22.6895ZM24.4875 25.4877L27.176 23.9197C27.9181 23.4869 28.8783 23.762 29.3199 24.5347C29.7616 25.3074 29.5173 26.285 28.7753 26.7178L27.431 27.5018C27.8727 28.2745 27.6284 29.2521 26.8864 29.6848C26.1444 30.1176 25.1841 29.8425 24.7425 29.0698L23.9429 27.6707C23.5012 26.898 23.7455 25.9204 24.4875 25.4877ZM43.3072 14.5118L45.9957 12.9438C46.7377 12.511 47.6979 12.7862 48.1396 13.5589L48.9392 14.9579C49.3808 15.7306 49.1366 16.7082 48.3946 17.141C47.6525 17.5737 46.6923 17.2986 46.2507 16.5259L44.9064 17.3099C44.1644 17.7427 43.2042 17.4675 42.7625 16.6948C42.3209 15.9221 42.5651 14.9445 43.3072 14.5118ZM36.8409 22.0138C39.0683 20.7148 41.9475 21.5408 43.2725 23.8591C44.5975 26.1773 43.8661 29.1091 41.6386 30.4082C39.4112 31.7073 36.5319 30.8812 35.207 28.563C33.882 26.2448 34.6134 23.3129 36.8409 22.0138ZM38.4401 24.812C37.6981 25.2447 37.4541 26.2227 37.8955 26.995C38.3369 27.7673 39.2973 28.0429 40.0394 27.6101C40.7814 27.1773 41.0254 26.1993 40.584 25.427C40.1426 24.6548 39.1821 24.3792 38.4401 24.812ZM30.0849 35.2811C30.8269 34.8483 31.7874 35.1239 32.2288 35.8962L33.5731 35.1122C34.3151 34.6794 35.2756 34.9549 35.7169 35.7272C36.1583 36.4995 35.9143 37.4775 35.1723 37.9103L32.4838 39.4783C31.7418 39.911 30.7813 39.6355 30.3399 38.8632L29.5403 37.4641C29.0989 36.6919 29.3429 35.7138 30.0849 35.2811ZM51.5931 22.7372C52.3351 22.3045 53.2956 22.58 53.737 23.3523L54.5366 24.7514C54.978 25.5236 54.734 26.5016 53.992 26.9344L51.3035 28.5024C50.5614 28.9351 49.601 28.6596 49.1596 27.8873C48.7182 27.115 48.9622 26.137 49.7042 25.7043L51.0485 24.9203C50.6071 24.148 50.8511 23.17 51.5931 22.7372Z" fill="#0A5BBA"/>
</svg>
