<svg width="66" height="59" viewBox="0 0 66 59" fill="none" xmlns="http://www.w3.org/2000/svg">
<path d="M9.82258 26.2188C6.21471 26.2188 3.28955 29.154 3.28955 32.7743V45.8854C3.28955 49.5057 6.21471 52.4409 9.82258 52.4409H29.4217C33.0295 52.4409 35.9547 49.5057 35.9547 45.8854V32.7743C35.9547 29.154 33.0295 26.2188 29.4217 26.2188H9.82258ZM9.82258 29.4965H29.4217C31.068 29.4965 32.4285 30.7093 32.6539 32.299C31.0892 33.7625 28.7635 35.5588 27.2266 36.6666C23.6906 39.2151 20.5792 40.9687 19.6221 40.9687C18.665 40.9687 15.5537 39.2167 12.0177 36.6666C10.4808 35.5588 8.97003 34.3607 7.83165 33.3889C7.34657 32.9742 6.98724 32.6399 6.70958 32.3646C6.93497 30.7748 8.17626 29.4965 9.82258 29.4965ZM6.57241 36.6322C10.7176 39.9969 16.7917 44.2268 19.6221 44.2465C21.4661 44.2596 24.6199 42.4929 27.8374 40.2624C29.5017 39.1069 31.3538 37.7352 32.6898 36.6093L32.6882 45.8854C32.6882 47.6963 31.2264 49.1631 29.4217 49.1631H9.82258C8.01783 49.1631 6.55607 47.6963 6.55607 45.8854L6.57241 36.6322Z" fill="#0A5BBA"/>
<path d="M25.8932 19.6054C23.1368 21.2022 21.3816 23.151 22.5304 26.03C22.8982 26.9519 23.6484 27.6342 24.6132 27.8821C25.0924 28.0052 25.622 28.1751 26.2584 28.2888C27.8564 28.5759 29.8148 28.8047 31.6233 28.9772C36.5982 29.4493 40.2827 29.3997 41.9319 28.4442C43.5812 27.4888 45.4662 24.3116 47.5462 19.7524C48.303 18.0938 49.0839 16.2761 49.6346 14.746C49.8547 14.1362 49.9736 13.5923 50.1061 13.113C50.3746 12.1506 50.1609 11.1575 49.5492 10.377C47.6388 7.93914 45.0793 8.49005 42.3229 10.0869L25.8932 19.6054ZM25.373 31.068L29.9453 39.0147C31.6736 42.0186 35.5019 43.0479 38.4954 41.3136L54.7571 31.8926C57.7506 30.1583 58.7764 26.3168 57.0481 23.313L52.4759 15.3662C51.9741 17.0693 51.3619 18.8817 50.3244 21.1454C48.0523 26.1024 45.646 29.9187 43.4967 31.1639C41.3475 32.409 36.8507 32.5919 31.4364 32.0879C28.9627 31.8585 27.0937 31.4835 25.373 31.068Z" fill="#0A5BBA"/>
</svg>
