<svg width="66" height="62" viewBox="0 0 66 62" fill="none" xmlns="http://www.w3.org/2000/svg">
<path d="M8.3436 29.0978C4.1681 29.0978 0.782715 32.4455 0.782715 36.5746V59.005C0.782715 60.5452 2.54817 61.3901 3.79572 60.4649L10.8236 55.2666H31.0263C35.2018 55.2666 38.5872 51.9189 38.5872 47.7898V36.5746C38.5872 32.4455 35.2018 29.0978 31.0263 29.0978H8.3436ZM8.3436 32.8362H31.0263C33.115 32.8362 34.8067 34.5091 34.8067 36.5746V47.7898C34.8067 49.8553 33.115 51.5282 31.0263 51.5282H10.2338C9.82554 51.5282 9.43805 51.6366 9.11104 51.8796L4.56316 55.2666V36.5746C4.56316 34.5091 6.25491 32.8362 8.3436 32.8362Z" fill="#0A5BBA"/>
<path d="M39.4698 11.2438C42.8059 9.32215 47.0724 10.4627 48.9985 13.791L59.4618 31.8715C60.2387 33.214 58.9934 34.8513 57.4926 34.4502L49.5052 33.5886L33.554 42.7764C30.2179 44.698 25.9514 43.5575 24.0252 40.2292L18.7936 31.1889C16.8675 27.8606 18.0107 23.6041 21.3468 21.6825L39.4698 11.2438Z" fill="#0A5BBA"/>
</svg>
