<svg width="20" height="20" viewBox="0 0 20 20" fill="none" xmlns="http://www.w3.org/2000/svg">
<path d="M18.1824 19.6966L13.901 15.4079C13.2278 15.9923 12.4424 16.4474 11.5449 16.7734C10.6473 17.0993 9.69366 17.2622 8.68391 17.2622C6.26049 17.2622 4.20732 16.4193 2.52439 14.7336C0.841464 13.0478 0 11.0137 0 8.63111C0 6.24857 0.841464 4.21441 2.52439 2.52865C4.20732 0.842882 6.24927 0 8.65025 0C11.0288 0 13.0539 0.842882 14.7256 2.52865C16.3973 4.21441 17.2332 6.24857 17.2332 8.63111C17.2332 9.59762 17.0761 10.5304 16.762 11.4295C16.4478 12.3286 15.9766 13.1714 15.3483 13.9581L19.6971 18.2468C19.899 18.4266 20 18.657 20 18.938C20 19.2189 19.8878 19.4718 19.6634 19.6966C19.4615 19.8989 19.2146 20 18.9229 20C18.6312 20 18.3844 19.8989 18.1824 19.6966ZM8.65025 15.2393C10.4678 15.2393 12.0161 14.5931 13.2951 13.3007C14.5742 12.0083 15.2137 10.4517 15.2137 8.63111C15.2137 6.81049 14.5742 5.25397 13.2951 3.96155C12.0161 2.66913 10.4678 2.02292 8.65025 2.02292C6.81025 2.02292 5.24512 2.66913 3.95488 3.96155C2.66464 5.25397 2.01951 6.81049 2.01951 8.63111C2.01951 10.4517 2.66464 12.0083 3.95488 13.3007C5.24512 14.5931 6.81025 15.2393 8.65025 15.2393Z" fill="#7C7B94"/>
</svg>
