<svg width="76" height="87" viewBox="0 0 76 87" fill="none" xmlns="http://www.w3.org/2000/svg">
<path d="M74.2028 27.0379H70.2882L28.6211 0.524647C28.4355 0.406504 28.22 0.34375 28 0.34375C27.78 0.34375 27.5645 0.406504 27.3789 0.524647L-14.2882 27.0379H-18.2027C-18.5096 27.0379 -18.8038 27.1598 -19.0208 27.3767C-19.2377 27.5937 -19.3596 27.888 -19.3596 28.1948V35.3978C-19.3596 35.7046 -19.2377 35.9989 -19.0208 36.2159C-18.8038 36.4328 -18.5096 36.5547 -18.2027 36.5547H-8.75425V69.7973H-12.5758V40.4628C-12.5758 40.156 -12.6977 39.8617 -12.9147 39.6448C-13.1316 39.4278 -13.4259 39.3059 -13.7327 39.3059C-14.0396 39.3059 -14.3338 39.4278 -14.5508 39.6448C-14.7677 39.8617 -14.8896 40.156 -14.8896 40.4628V70.5176C-14.8604 70.6618 -14.8604 70.8105 -14.8896 70.9548V77.1399H-18.2021C-18.3541 77.1399 -18.5045 77.1698 -18.6449 77.228C-18.7853 77.2861 -18.9128 77.3713 -19.0202 77.4788C-19.1277 77.5862 -19.2129 77.7138 -19.271 77.8542C-19.3291 77.9946 -19.359 78.145 -19.359 78.297V85.5C-19.359 85.6519 -19.3291 85.8024 -19.271 85.9427C-19.2128 86.0831 -19.1276 86.2106 -19.0202 86.318C-18.9127 86.4255 -18.7852 86.5107 -18.6448 86.5688C-18.5045 86.627 -18.354 86.6569 -18.2021 86.6569H74.2028C74.5096 86.6569 74.8038 86.535 75.0208 86.318C75.2378 86.1011 75.3596 85.8068 75.3596 85.5V78.2963C75.3597 78.1444 75.3298 77.9939 75.2716 77.8536C75.2135 77.7132 75.1283 77.5856 75.0209 77.4782C74.9134 77.3707 74.7859 77.2855 74.6455 77.2273C74.5051 77.1692 74.3547 77.1392 74.2028 77.1392H70.8903V70.9542C70.861 70.8099 70.861 70.6612 70.8903 70.5169V36.5547H74.2028C74.5096 36.5547 74.8038 36.4328 75.0208 36.2159C75.2378 35.9989 75.3596 35.7046 75.3596 35.3978V28.1948C75.3596 27.888 75.2378 27.5937 75.0208 27.3767C74.8038 27.1598 74.5096 27.0379 74.2028 27.0379ZM28 2.87217L65.9776 27.0379H59.5596L28.8296 7.39726C28.6436 7.27821 28.4274 7.21495 28.2065 7.21495C27.9857 7.21495 27.7695 7.27821 27.5835 7.39726L19.737 12.4124C19.6084 12.494 19.4972 12.6001 19.4097 12.7247C19.3223 12.8494 19.2603 12.9901 19.2273 13.1387C19.1943 13.2874 19.191 13.4411 19.2176 13.591C19.2441 13.7409 19.3 13.8841 19.382 14.0124C19.464 14.1407 19.5706 14.2515 19.6955 14.3386C19.8205 14.4256 19.9614 14.4871 20.1101 14.5196C20.2589 14.552 20.4126 14.5548 20.5624 14.5277C20.7123 14.5006 20.8553 14.4443 20.9833 14.3618L28.207 9.74499L55.2644 27.0379H1.14929L11.416 20.4762C11.6745 20.311 11.8568 20.0498 11.9227 19.7501C11.9887 19.4504 11.9329 19.1368 11.7676 18.8783C11.6023 18.6197 11.3411 18.4375 11.0415 18.3715C10.7418 18.3056 10.4282 18.3614 10.1696 18.5266L-3.14743 27.0379H-9.9776L28 2.87217ZM-12.5758 72.1117H68.5759V77.1397H-12.5758V72.1117ZM5.56775 39.3064C5.26093 39.3064 4.96667 39.4282 4.74971 39.6452C4.53275 39.8622 4.41086 40.1564 4.41086 40.4632V69.7973H-6.44047V36.5547H10.5473V69.7973H6.72485V40.4628C6.7248 40.156 6.60287 39.8617 6.38587 39.6448C6.16888 39.4278 5.8746 39.3059 5.56775 39.3059V39.3064ZM24.868 39.3064C24.5612 39.3064 24.2669 39.4282 24.05 39.6452C23.833 39.8622 23.7111 40.1564 23.7111 40.4632V69.7973H12.86V36.5547H29.8467V69.7973H26.0251V40.4628C26.0251 40.156 25.9031 39.8617 25.6862 39.6448C25.4692 39.4278 25.1749 39.3059 24.868 39.3059V39.3064ZM44.2327 39.3064C44.0808 39.3064 43.9303 39.3363 43.79 39.3944C43.6496 39.4526 43.5221 39.5378 43.4147 39.6452C43.3072 39.7526 43.222 39.8802 43.1639 40.0205C43.1057 40.1609 43.0758 40.3113 43.0758 40.4632V69.7973H32.1613V36.5547H49.2118V69.7973H45.3906V40.4628C45.3906 40.3108 45.3606 40.1603 45.3024 40.0199C45.2442 39.8795 45.1589 39.7519 45.0514 39.6445C44.9438 39.5371 44.8162 39.4519 44.6757 39.3938C44.5352 39.3357 44.3847 39.3058 44.2327 39.3059V39.3064ZM63.5974 39.3064C63.2906 39.3064 62.9963 39.4282 62.7793 39.6452C62.5624 39.8622 62.4405 40.1564 62.4405 40.4632V69.7973H51.525V36.5547H68.5759V69.7973H64.7543V40.4628C64.7543 40.3109 64.7243 40.1605 64.6662 40.0201C64.6081 39.8798 64.5229 39.7522 64.4154 39.6448C64.308 39.5374 64.1805 39.4521 64.0401 39.394C63.8997 39.3359 63.7493 39.3059 63.5974 39.3059V39.3064ZM73.0457 79.4537V84.3427H-17.0456V79.4532L73.0457 79.4537ZM73.0457 34.2413H-17.0456V29.3517H73.0457V34.2413Z" fill="#0A5BBA" opacity="0.2"/>
</svg>
